<?xml version="1.0" ?><svg height="32" id="svg4063" version="1.1" viewBox="0 0 32 32.000001" width="32" xmlns="http://www.w3.org/2000/svg" xmlns:cc="http://creativecommons.org/ns#" xmlns:dc="http://purl.org/dc/elements/1.1/" xmlns:inkscape="http://www.inkscape.org/namespaces/inkscape" xmlns:rdf="http://www.w3.org/1999/02/22-rdf-syntax-ns#" xmlns:sodipodi="http://sodipodi.sourceforge.net/DTD/sodipodi-0.dtd" xmlns:svg="http://www.w3.org/2000/svg"><defs id="defs4065"/><g id="layer1" transform="translate(0,-1020.3621)"><g id="g7966" transform="translate(-766.49658,-562.0323)"><g id="g8027"><path d="m 778.49659,1591.3944 13.5,0 c 0.83101,0 1.50001,0.669 1.50001,1.5 l 0,14 c 0,0.831 -0.669,1.5 -1.50001,1.5 l -9.5,0 z" id="path5424" style="opacity:1;fill:#e6e7e8;fill-opacity:1;stroke:none;stroke-width:1;stroke-linecap:round;stroke-linejoin:round;stroke-miterlimit:4.0999999;stroke-dasharray:none"/><path d="m 785.5033,1605.4022 -3.00671,2.9922 -0.70558,-2.9987 z" id="path5426" style="opacity:1;fill:#376ad7;fill-opacity:1;stroke:none;stroke-width:1;stroke-linecap:round;stroke-linejoin:round;stroke-miterlimit:4.0999999;stroke-dasharray:none"/><path d="m 783.49023,1594.8945 a 0.50005,0.50005 0 1 0 0,1 l 7,0 a 0.50005,0.50005 0 1 0 0,-1 l -7,0 z" id="path5432" style="color:#000000;font-style:normal;font-variant:normal;font-weight:normal;font-stretch:normal;font-size:medium;line-height:normal;font-family:sans-serif;text-indent:0;text-align:start;text-decoration:none;text-decoration-line:none;text-decoration-style:solid;text-decoration-color:#000000;letter-spacing:normal;word-spacing:normal;text-transform:none;direction:ltr;block-progression:tb;writing-mode:lr-tb;baseline-shift:baseline;text-anchor:start;white-space:normal;clip-rule:nonzero;display:inline;overflow:visible;visibility:visible;opacity:1;isolation:auto;mix-blend-mode:normal;color-interpolation:sRGB;color-interpolation-filters:linearRGB;solid-color:#000000;solid-opacity:1;fill:#5f7987;fill-opacity:1;fill-rule:evenodd;stroke:none;stroke-width:1px;stroke-linecap:round;stroke-linejoin:round;stroke-miterlimit:4;stroke-dasharray:none;stroke-dashoffset:0;stroke-opacity:1;color-rendering:auto;image-rendering:auto;shape-rendering:auto;text-rendering:auto;enable-background:accumulate"/><path d="m 785.47461,1594.9258 a 0.50005,0.50005 0 0 0 -0.46094,0.5371 c 0.19708,3.1079 1.98898,5.8952 4.73438,7.3652 a 0.50005,0.50005 0 1 0 0.47265,-0.8808 c -2.4415,-1.3073 -4.03371,-3.783 -4.20898,-6.5469 a 0.50005,0.50005 0 0 0 -0.53711,-0.4746 z" id="path5434" style="color:#000000;font-style:normal;font-variant:normal;font-weight:normal;font-stretch:normal;font-size:medium;line-height:normal;font-family:sans-serif;text-indent:0;text-align:start;text-decoration:none;text-decoration-line:none;text-decoration-style:solid;text-decoration-color:#000000;letter-spacing:normal;word-spacing:normal;text-transform:none;direction:ltr;block-progression:tb;writing-mode:lr-tb;baseline-shift:baseline;text-anchor:start;white-space:normal;clip-rule:nonzero;display:inline;overflow:visible;visibility:visible;opacity:1;isolation:auto;mix-blend-mode:normal;color-interpolation:sRGB;color-interpolation-filters:linearRGB;solid-color:#000000;solid-opacity:1;fill:#5f7987;fill-opacity:1;fill-rule:nonzero;stroke:none;stroke-width:1;stroke-linecap:round;stroke-linejoin:round;stroke-miterlimit:4;stroke-dasharray:none;stroke-dashoffset:0;stroke-opacity:1;color-rendering:auto;image-rendering:auto;shape-rendering:auto;text-rendering:auto;enable-background:accumulate"/><path d="m 788.50391,1594.9199 a 0.50005,0.50005 0 0 0 -0.52344,0.4766 c -0.15598,2.4818 -1.45607,4.749 -3.51953,6.1367 a 0.50027213,0.50027213 0 0 0 0.55859,0.8301 c 2.32067,-1.5607 3.78357,-4.1132 3.95899,-6.9043 a 0.50005,0.50005 0 0 0 -0.47461,-0.5391 z" id="path5436" style="color:#000000;font-style:normal;font-variant:normal;font-weight:normal;font-stretch:normal;font-size:medium;line-height:normal;font-family:sans-serif;text-indent:0;text-align:start;text-decoration:none;text-decoration-line:none;text-decoration-style:solid;text-decoration-color:#000000;letter-spacing:normal;word-spacing:normal;text-transform:none;direction:ltr;block-progression:tb;writing-mode:lr-tb;baseline-shift:baseline;text-anchor:start;white-space:normal;clip-rule:nonzero;display:inline;overflow:visible;visibility:visible;opacity:1;isolation:auto;mix-blend-mode:normal;color-interpolation:sRGB;color-interpolation-filters:linearRGB;solid-color:#000000;solid-opacity:1;fill:#5f7987;fill-opacity:1;fill-rule:nonzero;stroke:none;stroke-width:1;stroke-linecap:round;stroke-linejoin:round;stroke-miterlimit:4;stroke-dasharray:none;stroke-dashoffset:0;stroke-opacity:1;color-rendering:auto;image-rendering:auto;shape-rendering:auto;text-rendering:auto;enable-background:accumulate"/><path d="m 786.98828,1592.8945 a 0.50005,0.50005 0 0 0 -0.49219,0.5078 l 0,2 a 0.50005,0.50005 0 1 0 1,0 l 0,-2 a 0.50005,0.50005 0 0 0 -0.50781,-0.5078 z" id="path5438" style="color:#000000;font-style:normal;font-variant:normal;font-weight:normal;font-stretch:normal;font-size:medium;line-height:normal;font-family:sans-serif;text-indent:0;text-align:start;text-decoration:none;text-decoration-line:none;text-decoration-style:solid;text-decoration-color:#000000;letter-spacing:normal;word-spacing:normal;text-transform:none;direction:ltr;block-progression:tb;writing-mode:lr-tb;baseline-shift:baseline;text-anchor:start;white-space:normal;clip-rule:nonzero;display:inline;overflow:visible;visibility:visible;opacity:1;isolation:auto;mix-blend-mode:normal;color-interpolation:sRGB;color-interpolation-filters:linearRGB;solid-color:#000000;solid-opacity:1;fill:#5f7987;fill-opacity:1;fill-rule:evenodd;stroke:none;stroke-width:1px;stroke-linecap:round;stroke-linejoin:round;stroke-miterlimit:4;stroke-dasharray:none;stroke-dashoffset:0;stroke-opacity:1;color-rendering:auto;image-rendering:auto;shape-rendering:auto;text-rendering:auto;enable-background:accumulate"/><path d="m 785.49659,1605.3944 -13.5,0 c -0.83101,0 -1.50001,-0.669 -1.50001,-1.5 l 0,-14 c 0,-0.831 0.669,-1.5 1.50001,-1.5 l 9.5,0 z" id="path5440" style="opacity:1;fill:#518ff5;fill-opacity:1;stroke:none;stroke-width:1;stroke-linecap:round;stroke-linejoin:round;stroke-miterlimit:4.0999999;stroke-dasharray:none"/><path d="m 775.60547,1590.9199 c -0.63892,0.084 -1.25118,0.3723 -1.73047,0.8516 -0.95862,0.9585 -1.15441,2.449 -0.47656,3.623 0.67783,1.174 2.06558,1.7493 3.375,1.3985 1.30943,-0.3509 2.22264,-1.5428 2.22265,-2.8985 l 0,-0.5 -3,0 0,1 1.83008,0 c -0.18643,0.6684 -0.61555,1.2449 -1.3125,1.4317 -0.87694,0.2349 -1.79607,-0.1455 -2.25,-0.9317 -0.45393,-0.7862 -0.32356,-1.7741 0.31836,-2.416 0.64198,-0.642 1.62784,-0.7703 2.41406,-0.3164 l 0.5,-0.8672 c -0.587,-0.3389 -1.2517,-0.4591 -1.89062,-0.375 z" id="path5444" style="color:#000000;font-style:normal;font-variant:normal;font-weight:normal;font-stretch:normal;font-size:medium;line-height:normal;font-family:sans-serif;text-indent:0;text-align:start;text-decoration:none;text-decoration-line:none;text-decoration-style:solid;text-decoration-color:#000000;letter-spacing:normal;word-spacing:normal;text-transform:none;direction:ltr;block-progression:tb;writing-mode:lr-tb;baseline-shift:baseline;text-anchor:start;white-space:normal;clip-rule:nonzero;display:inline;overflow:visible;visibility:visible;opacity:1;isolation:auto;mix-blend-mode:normal;color-interpolation:sRGB;color-interpolation-filters:linearRGB;solid-color:#000000;solid-opacity:1;fill:#f9f9f9;fill-opacity:1;fill-rule:nonzero;stroke:none;stroke-width:1;stroke-linecap:butt;stroke-linejoin:miter;stroke-miterlimit:4.0999999;stroke-dasharray:none;stroke-dashoffset:0;stroke-opacity:1;color-rendering:auto;image-rendering:auto;shape-rendering:auto;text-rendering:auto;enable-background:accumulate"/></g></g></g></svg>